<svg width="81" height="80" viewBox="0 0 81 80" fill="none" xmlns="http://www.w3.org/2000/svg">
<path d="M71.6863 0H27.7647C23.0075 0 19.1373 3.87027 19.1373 8.62745V28.2353H8.62745C3.87027 28.2353 0 32.1056 0 36.8627V61.9608C0 66.718 3.87027 70.5882 8.62745 70.5882H23.0544L28.6304 78.9522C29.0668 79.6068 29.8016 80 30.5882 80C31.3749 80 32.1096 79.6068 32.546 78.9522L38.122 70.5882H52.549C57.3062 70.5882 61.1765 66.718 61.1765 61.9608V42.3529H71.6863C76.4435 42.3529 80.3137 38.4827 80.3137 33.7255V8.62745C80.3137 3.87027 76.4435 0 71.6863 0ZM56.4706 61.9608C56.4706 64.1231 54.7114 65.8824 52.549 65.8824H36.8627C36.0761 65.8824 35.3413 66.2756 34.9049 66.9302L30.5882 73.4052L26.2715 66.9302C25.8351 66.2756 25.1004 65.8824 24.3137 65.8824H8.62745C6.4651 65.8824 4.70588 64.1231 4.70588 61.9608V36.8627C4.70588 34.7004 6.4651 32.9412 8.62745 32.9412H19.1373V33.7255C19.1373 35.1373 19.4803 36.4695 20.0839 37.6471H11.7647C10.4653 37.6471 9.41177 38.7006 9.41177 40C9.41177 41.2995 10.4653 42.3529 11.7647 42.3529H42.1918L45.3291 47.0588H11.7647C10.4653 47.0588 9.41177 48.1123 9.41177 49.4118C9.41177 50.7112 10.4653 51.7647 11.7647 51.7647H49.7255C50.5123 51.7647 51.2469 51.3715 51.6831 50.7169L56.4706 43.5358V61.9608ZM75.6078 33.7255C75.6078 35.8878 73.8486 37.6471 71.6863 37.6471H56C55.2132 37.6471 54.4786 38.0403 54.0424 38.6949L49.7255 45.1699L45.4086 38.6949C44.9724 38.0403 44.2376 37.6471 43.451 37.6471H27.7647C25.6024 37.6471 23.8431 35.8878 23.8431 33.7255V8.62745C23.8431 6.4651 25.6024 4.70588 27.7647 4.70588H71.6863C73.8486 4.70588 75.6078 6.4651 75.6078 8.62745V33.7255Z" fill="#2352DE"/>
<path d="M49.4119 56.4707H11.7648C10.4654 56.4707 9.41187 57.5242 9.41187 58.8236C9.41187 60.1231 10.4654 61.1766 11.7648 61.1766H49.4119C50.7113 61.1766 51.7648 60.1231 51.7648 58.8236C51.7648 57.5242 50.7113 56.4707 49.4119 56.4707Z" fill="#2352DE"/>
<path d="M61.0443 16.3828L54.6812 15.4581L51.8355 9.69199C51.4391 8.88885 50.6213 8.38046 49.7256 8.38046C48.8299 8.38046 48.012 8.88885 47.6156 9.69199L44.77 15.4581L38.4068 16.3828C37.5205 16.5114 36.7841 17.1323 36.5074 17.9842C36.2305 18.836 36.4614 19.771 37.1027 20.3961L41.7071 24.8841L40.62 31.2216C40.4686 32.1044 40.8316 32.9965 41.5562 33.523C42.2805 34.0492 43.241 34.1188 44.0341 33.7022L49.7256 30.7099L55.4169 33.7022C55.7612 33.883 56.137 33.9725 56.5116 33.9725C56.9994 33.9725 57.4851 33.8209 57.8948 33.5232C58.6194 32.9968 58.9823 32.1045 58.831 31.2217L57.7439 24.8843L62.3483 20.3963C62.9897 19.7712 63.2206 18.8361 62.9438 17.9844C62.6671 17.1325 61.9307 16.5116 61.0443 16.3828ZM53.5734 22.378C53.0187 22.9185 52.7657 23.6973 52.8967 24.4606L53.3869 27.3182L50.8206 25.9689C50.4777 25.7888 50.1017 25.6986 49.7257 25.6986C49.3497 25.6986 48.9736 25.7886 48.6308 25.9689L46.0645 27.3182L46.5547 24.4606C46.6857 23.6973 46.4327 22.9185 45.878 22.378L43.802 20.3543L46.6713 19.9373C47.4377 19.826 48.1002 19.3447 48.4429 18.6503L49.726 16.0503L51.0092 18.6503C51.3519 19.3447 52.0143 19.826 52.7808 19.9373L55.6501 20.3543L53.5734 22.378Z" fill="#2352DE"/>
</svg>
