<svg width="44" height="46" viewBox="0 0 44 46" fill="none" xmlns="http://www.w3.org/2000/svg">
<g clip-path="url(#clip0)">
<path d="M43.3205 4.49218C42.7831 3.81663 41.9781 3.4447 41.0536 3.4447C40.551 3.4447 40.0186 3.55338 39.4714 3.76833L2.22627 18.3809C0.249703 19.1561 -0.016502 20.3195 0.000618374 20.944C0.0177387 21.5685 0.347725 22.7147 2.3639 23.374C2.37598 23.3778 2.38807 23.3816 2.40015 23.385L10.1258 25.6573L14.3038 37.9365C14.8735 39.6105 16.1522 40.6504 17.6413 40.6504C18.5802 40.6504 19.5037 40.2461 20.3121 39.4815L25.0907 34.9594L32.0217 40.6953C32.0224 40.696 32.0234 40.6963 32.0241 40.697L32.0899 40.7515C32.0959 40.7563 32.1023 40.7615 32.1083 40.7664C32.8788 41.3805 33.7197 41.7048 34.5411 41.7051H34.5415C36.1464 41.7051 37.4244 40.4841 37.7967 38.5948L43.8992 7.6246C44.1443 6.3815 43.9389 5.26916 43.3205 4.49218ZM12.7103 25.2257L27.6154 17.3997L18.3345 27.5353C18.1824 27.7012 18.0747 27.9044 18.0216 28.1256L16.2321 35.5759L12.7103 25.2257ZM18.5655 37.5322C18.5037 37.5905 18.4416 37.6426 18.3795 37.6905L20.0398 30.7791L23.0601 33.2788L18.5655 37.5322ZM41.3725 7.09844L35.2699 38.069C35.2112 38.3654 35.0235 39.0551 34.5411 39.0551C34.3028 39.0551 34.0033 38.9215 33.6968 38.679L25.843 32.1795C25.842 32.1785 25.8406 32.1775 25.8393 32.1768L21.1661 28.3091L34.5874 13.6517C35.0171 13.1825 35.0561 12.4638 34.6798 11.9484C34.3031 11.4329 33.6206 11.2707 33.0624 11.564L10.9879 23.1546L3.15714 20.8519L40.3909 6.24383C40.7055 6.12032 40.925 6.09444 41.0536 6.09444C41.1325 6.09444 41.2728 6.1041 41.3248 6.17C41.3933 6.25591 41.4806 6.54883 41.3725 7.09844Z" fill="#2352DE"/>
</g>
<defs>
<clipPath id="clip0">
<rect width="44" height="45.2222" fill="white"/>
</clipPath>
</defs>
</svg>
